<mxfile host="app.diagrams.net" modified="2022-11-21T10:08:37.614Z" agent="5.0 (Windows NT 10.0; Win64; x64) AppleWebKit/537.36 (KHTML, like Gecko) Chrome/107.0.0.0 Safari/537.36" etag="P6RmQN8m9t8Pq4WwXBgY" version="20.5.3" type="github">
  <diagram id="XpGdOiMiwPqIZfXv3TxO" name="페이지-1">
    <mxGraphModel dx="2062" dy="1122" grid="1" gridSize="10" guides="1" tooltips="1" connect="1" arrows="1" fold="1" page="1" pageScale="1" pageWidth="1169" pageHeight="827" math="0" shadow="0">
      <root>
        <mxCell id="0" />
        <mxCell id="1" parent="0" />
        <mxCell id="J_ALawjSr7KDWthtxZh8-90" value="" style="rounded=1;whiteSpace=wrap;html=1;strokeColor=#d6b656;fontSize=12;fillColor=#fff2cc;dashed=1;" vertex="1" parent="1">
          <mxGeometry x="477" y="551" width="230" height="239" as="geometry" />
        </mxCell>
        <mxCell id="J_ALawjSr7KDWthtxZh8-92" value="" style="rounded=1;whiteSpace=wrap;html=1;strokeColor=#82b366;fontSize=12;fillColor=#d5e8d4;dashed=1;" vertex="1" parent="1">
          <mxGeometry x="481" y="771" width="120" height="150" as="geometry" />
        </mxCell>
        <mxCell id="J_ALawjSr7KDWthtxZh8-22" value="" style="edgeStyle=orthogonalEdgeStyle;rounded=0;orthogonalLoop=1;jettySize=auto;html=1;fontSize=14;" edge="1" parent="1" source="J_ALawjSr7KDWthtxZh8-1" target="J_ALawjSr7KDWthtxZh8-21">
          <mxGeometry relative="1" as="geometry" />
        </mxCell>
        <mxCell id="J_ALawjSr7KDWthtxZh8-1" value="시작" style="ellipse;whiteSpace=wrap;html=1;" vertex="1" parent="1">
          <mxGeometry x="20" y="140" width="80" height="50" as="geometry" />
        </mxCell>
        <mxCell id="J_ALawjSr7KDWthtxZh8-15" style="edgeStyle=orthogonalEdgeStyle;rounded=0;orthogonalLoop=1;jettySize=auto;html=1;entryX=0.5;entryY=0;entryDx=0;entryDy=0;fontSize=9;" edge="1" parent="1" source="J_ALawjSr7KDWthtxZh8-3" target="J_ALawjSr7KDWthtxZh8-14">
          <mxGeometry relative="1" as="geometry" />
        </mxCell>
        <mxCell id="J_ALawjSr7KDWthtxZh8-20" value="" style="edgeStyle=orthogonalEdgeStyle;orthogonalLoop=1;jettySize=auto;html=1;fontSize=20;dashed=1;rounded=0;strokeWidth=2;dashPattern=1 4;" edge="1" parent="1" source="J_ALawjSr7KDWthtxZh8-3" target="J_ALawjSr7KDWthtxZh8-10">
          <mxGeometry relative="1" as="geometry" />
        </mxCell>
        <mxCell id="J_ALawjSr7KDWthtxZh8-26" value="" style="edgeStyle=orthogonalEdgeStyle;rounded=0;orthogonalLoop=1;jettySize=auto;html=1;fontSize=14;entryX=0;entryY=0.5;entryDx=0;entryDy=0;entryPerimeter=0;" edge="1" parent="1" source="J_ALawjSr7KDWthtxZh8-3" target="J_ALawjSr7KDWthtxZh8-25">
          <mxGeometry relative="1" as="geometry" />
        </mxCell>
        <mxCell id="J_ALawjSr7KDWthtxZh8-27" style="edgeStyle=orthogonalEdgeStyle;rounded=0;orthogonalLoop=1;jettySize=auto;html=1;entryX=0;entryY=0.5;entryDx=0;entryDy=0;entryPerimeter=0;fontSize=14;" edge="1" parent="1" source="J_ALawjSr7KDWthtxZh8-3" target="J_ALawjSr7KDWthtxZh8-24">
          <mxGeometry relative="1" as="geometry" />
        </mxCell>
        <mxCell id="J_ALawjSr7KDWthtxZh8-3" value="StatXXXCollector" style="rounded=0;whiteSpace=wrap;html=1;" vertex="1" parent="1">
          <mxGeometry x="490" y="135" width="120" height="60" as="geometry" />
        </mxCell>
        <mxCell id="J_ALawjSr7KDWthtxZh8-10" value="&lt;p style=&quot;line-height: 110%; font-size: 10px;&quot;&gt;&lt;font style=&quot;font-size: 10px;&quot;&gt;STATUS_UPDATE_INFO&lt;/font&gt;&lt;/p&gt;" style="shape=internalStorage;whiteSpace=wrap;html=1;backgroundOutline=1;align=right;fontSize=10;" vertex="1" parent="1">
          <mxGeometry x="280" y="135" width="144" height="60" as="geometry" />
        </mxCell>
        <mxCell id="J_ALawjSr7KDWthtxZh8-14" value="&lt;p style=&quot;line-height: 110%; font-size: 10px;&quot;&gt;&lt;font style=&quot;font-size: 10px;&quot;&gt;GROUP_STATUS_&lt;br style=&quot;font-size: 10px;&quot;&gt;UPDATE_INFO&lt;/font&gt;&lt;/p&gt;" style="shape=internalStorage;whiteSpace=wrap;html=1;backgroundOutline=1;align=center;fontSize=10;" vertex="1" parent="1">
          <mxGeometry x="485" y="265" width="130" height="70" as="geometry" />
        </mxCell>
        <mxCell id="J_ALawjSr7KDWthtxZh8-17" value="App 서버&lt;br&gt;15000_snmp.conf" style="rounded=1;whiteSpace=wrap;html=1;fontSize=20;fontStyle=1" vertex="1" parent="1">
          <mxGeometry width="190" height="90" as="geometry" />
        </mxCell>
        <mxCell id="J_ALawjSr7KDWthtxZh8-23" value="" style="edgeStyle=orthogonalEdgeStyle;rounded=0;orthogonalLoop=1;jettySize=auto;html=1;fontSize=14;" edge="1" parent="1" source="J_ALawjSr7KDWthtxZh8-21" target="J_ALawjSr7KDWthtxZh8-10">
          <mxGeometry relative="1" as="geometry" />
        </mxCell>
        <mxCell id="J_ALawjSr7KDWthtxZh8-21" value="&lt;font style=&quot;font-size: 14px;&quot;&gt;SNMP 수집부&lt;/font&gt;" style="rounded=0;whiteSpace=wrap;html=1;fontSize=20;" vertex="1" parent="1">
          <mxGeometry x="120" y="147.5" width="120" height="35" as="geometry" />
        </mxCell>
        <mxCell id="J_ALawjSr7KDWthtxZh8-24" value="&lt;span style=&quot;font-size: 12px; text-align: right;&quot;&gt;GROUP_PER_IFC_PPS&lt;/span&gt;" style="shape=cylinder3;whiteSpace=wrap;html=1;boundedLbl=1;backgroundOutline=1;size=15;fontSize=14;" vertex="1" parent="1">
          <mxGeometry x="690" y="170" width="160" height="60" as="geometry" />
        </mxCell>
        <mxCell id="J_ALawjSr7KDWthtxZh8-47" value="" style="edgeStyle=orthogonalEdgeStyle;rounded=0;orthogonalLoop=1;jettySize=auto;html=1;strokeWidth=1;fontSize=12;curved=1;" edge="1" parent="1" source="J_ALawjSr7KDWthtxZh8-25" target="J_ALawjSr7KDWthtxZh8-46">
          <mxGeometry relative="1" as="geometry" />
        </mxCell>
        <mxCell id="J_ALawjSr7KDWthtxZh8-25" value="&lt;span style=&quot;font-size: 12px; text-align: right;&quot;&gt;GROUP_PER_IFC_USAGE&lt;/span&gt;" style="shape=cylinder3;whiteSpace=wrap;html=1;boundedLbl=1;backgroundOutline=1;size=15;fontSize=14;" vertex="1" parent="1">
          <mxGeometry x="690" y="100" width="160" height="60" as="geometry" />
        </mxCell>
        <mxCell id="J_ALawjSr7KDWthtxZh8-34" value="" style="edgeStyle=orthogonalEdgeStyle;rounded=0;orthogonalLoop=1;jettySize=auto;html=1;strokeWidth=1;fontSize=14;" edge="1" parent="1" source="J_ALawjSr7KDWthtxZh8-28" target="J_ALawjSr7KDWthtxZh8-30">
          <mxGeometry relative="1" as="geometry" />
        </mxCell>
        <mxCell id="J_ALawjSr7KDWthtxZh8-28" value="시작" style="ellipse;whiteSpace=wrap;html=1;" vertex="1" parent="1">
          <mxGeometry x="304" y="454" width="80" height="50" as="geometry" />
        </mxCell>
        <mxCell id="J_ALawjSr7KDWthtxZh8-32" value="" style="edgeStyle=orthogonalEdgeStyle;rounded=0;orthogonalLoop=1;jettySize=auto;html=1;dashed=1;dashPattern=1 4;strokeWidth=2;fontSize=14;" edge="1" parent="1" source="J_ALawjSr7KDWthtxZh8-29" target="J_ALawjSr7KDWthtxZh8-30">
          <mxGeometry relative="1" as="geometry" />
        </mxCell>
        <mxCell id="J_ALawjSr7KDWthtxZh8-36" value="" style="edgeStyle=orthogonalEdgeStyle;rounded=0;orthogonalLoop=1;jettySize=auto;html=1;strokeWidth=1;fontSize=14;" edge="1" parent="1" source="J_ALawjSr7KDWthtxZh8-29" target="J_ALawjSr7KDWthtxZh8-35">
          <mxGeometry relative="1" as="geometry" />
        </mxCell>
        <mxCell id="J_ALawjSr7KDWthtxZh8-29" value="WorkflowGroupDbChecker" style="rounded=0;whiteSpace=wrap;html=1;fontSize=10;" vertex="1" parent="1">
          <mxGeometry x="269" y="679" width="150" height="60" as="geometry" />
        </mxCell>
        <mxCell id="J_ALawjSr7KDWthtxZh8-30" value="&lt;p style=&quot;line-height: 110%; font-size: 10px;&quot;&gt;&lt;font style=&quot;font-size: 10px;&quot;&gt;STATUS_UPDATE_INFO&lt;/font&gt;&lt;/p&gt;" style="shape=internalStorage;whiteSpace=wrap;html=1;backgroundOutline=1;align=right;fontSize=10;" vertex="1" parent="1">
          <mxGeometry x="272" y="564" width="144" height="60" as="geometry" />
        </mxCell>
        <mxCell id="J_ALawjSr7KDWthtxZh8-51" value="" style="rounded=0;orthogonalLoop=1;jettySize=auto;html=1;strokeWidth=1;fontSize=12;exitX=0.5;exitY=1;exitDx=0;exitDy=0;entryX=0;entryY=0.5;entryDx=0;entryDy=0;edgeStyle=orthogonalEdgeStyle;" edge="1" parent="1" source="J_ALawjSr7KDWthtxZh8-35" target="J_ALawjSr7KDWthtxZh8-50">
          <mxGeometry relative="1" as="geometry" />
        </mxCell>
        <mxCell id="J_ALawjSr7KDWthtxZh8-77" style="edgeStyle=orthogonalEdgeStyle;rounded=0;orthogonalLoop=1;jettySize=auto;html=1;exitX=0.75;exitY=1;exitDx=0;exitDy=0;entryX=0;entryY=0.5;entryDx=0;entryDy=0;strokeWidth=1;fontSize=12;" edge="1" parent="1" source="J_ALawjSr7KDWthtxZh8-35" target="J_ALawjSr7KDWthtxZh8-52">
          <mxGeometry relative="1" as="geometry" />
        </mxCell>
        <mxCell id="J_ALawjSr7KDWthtxZh8-35" value="&lt;font style=&quot;font-size: 10px;&quot;&gt;WorkflowGroup5MCollector&lt;/font&gt;" style="rounded=0;whiteSpace=wrap;html=1;" vertex="1" parent="1">
          <mxGeometry x="269" y="790" width="150" height="60" as="geometry" />
        </mxCell>
        <mxCell id="J_ALawjSr7KDWthtxZh8-44" value="" style="rounded=0;orthogonalLoop=1;jettySize=auto;html=1;dashed=1;dashPattern=1 4;strokeWidth=2;fontSize=14;exitX=0;exitY=0.5;exitDx=0;exitDy=0;entryX=1;entryY=0;entryDx=0;entryDy=15;entryPerimeter=0;" edge="1" parent="1" source="J_ALawjSr7KDWthtxZh8-35" target="J_ALawjSr7KDWthtxZh8-79">
          <mxGeometry relative="1" as="geometry">
            <mxPoint x="665" y="425" as="sourcePoint" />
            <mxPoint x="210" y="840.5" as="targetPoint" />
          </mxGeometry>
        </mxCell>
        <mxCell id="J_ALawjSr7KDWthtxZh8-45" value="&lt;span style=&quot;font-size: 10px; text-align: right;&quot;&gt;GROUP_PER_IFC&lt;br&gt;_PPS_5M&lt;/span&gt;" style="shape=cylinder3;whiteSpace=wrap;html=1;boundedLbl=1;backgroundOutline=1;size=15;fontSize=10;" vertex="1" parent="1">
          <mxGeometry x="494" y="775" width="88" height="60" as="geometry" />
        </mxCell>
        <mxCell id="J_ALawjSr7KDWthtxZh8-46" value="&lt;h1&gt;&lt;font style=&quot;font-size: 12px;&quot;&gt;이후 통계에는 사용하지 않음.&lt;/font&gt;&lt;/h1&gt;" style="text;html=1;strokeColor=none;fillColor=none;spacing=5;spacingTop=-20;whiteSpace=wrap;overflow=hidden;rounded=0;fontSize=10;" vertex="1" parent="1">
          <mxGeometry x="920" y="60" width="90" height="60" as="geometry" />
        </mxCell>
        <mxCell id="J_ALawjSr7KDWthtxZh8-48" value="" style="edgeStyle=orthogonalEdgeStyle;rounded=0;orthogonalLoop=1;jettySize=auto;html=1;strokeWidth=1;fontSize=12;curved=1;exitX=1;exitY=0;exitDx=0;exitDy=37.5;exitPerimeter=0;entryX=0.5;entryY=1;entryDx=0;entryDy=0;" edge="1" parent="1" source="J_ALawjSr7KDWthtxZh8-24" target="J_ALawjSr7KDWthtxZh8-46">
          <mxGeometry relative="1" as="geometry">
            <mxPoint x="860" y="140" as="sourcePoint" />
            <mxPoint x="930" y="100" as="targetPoint" />
          </mxGeometry>
        </mxCell>
        <mxCell id="J_ALawjSr7KDWthtxZh8-49" value="&lt;span style=&quot;text-align: right;&quot;&gt;GROUP_PER_IFC&lt;br&gt;_USAGE_5M&lt;/span&gt;" style="shape=cylinder3;whiteSpace=wrap;html=1;boundedLbl=1;backgroundOutline=1;size=15;fontSize=10;" vertex="1" parent="1">
          <mxGeometry x="494" y="841" width="88" height="60" as="geometry" />
        </mxCell>
        <mxCell id="J_ALawjSr7KDWthtxZh8-76" value="" style="edgeStyle=none;rounded=0;orthogonalLoop=1;jettySize=auto;html=1;strokeWidth=2;fontSize=12;dashed=1;entryX=0.25;entryY=0;entryDx=0;entryDy=0;" edge="1" parent="1" source="J_ALawjSr7KDWthtxZh8-52" target="J_ALawjSr7KDWthtxZh8-50">
          <mxGeometry relative="1" as="geometry" />
        </mxCell>
        <mxCell id="J_ALawjSr7KDWthtxZh8-96" style="rounded=0;orthogonalLoop=1;jettySize=auto;html=1;strokeWidth=1;fontSize=16;exitX=1;exitY=0.25;exitDx=0;exitDy=0;edgeStyle=orthogonalEdgeStyle;entryX=0.75;entryY=1;entryDx=0;entryDy=0;" edge="1" parent="1" source="J_ALawjSr7KDWthtxZh8-52" target="J_ALawjSr7KDWthtxZh8-90">
          <mxGeometry relative="1" as="geometry">
            <Array as="points">
              <mxPoint x="650" y="962" />
              <mxPoint x="650" y="869" />
            </Array>
          </mxGeometry>
        </mxCell>
        <mxCell id="J_ALawjSr7KDWthtxZh8-98" style="edgeStyle=none;rounded=0;orthogonalLoop=1;jettySize=auto;html=1;entryX=0.5;entryY=1;entryDx=0;entryDy=0;strokeWidth=1;fontSize=16;" edge="1" parent="1" source="J_ALawjSr7KDWthtxZh8-52" target="J_ALawjSr7KDWthtxZh8-92">
          <mxGeometry relative="1" as="geometry">
            <mxPoint x="526" y="921" as="targetPoint" />
          </mxGeometry>
        </mxCell>
        <mxCell id="J_ALawjSr7KDWthtxZh8-52" value="&lt;font style=&quot;font-size: 10px;&quot;&gt;WorkflowIrisLoader&lt;/font&gt;" style="rounded=0;whiteSpace=wrap;html=1;" vertex="1" parent="1">
          <mxGeometry x="467" y="947" width="150" height="60" as="geometry" />
        </mxCell>
        <mxCell id="J_ALawjSr7KDWthtxZh8-53" value="" style="rounded=0;orthogonalLoop=1;jettySize=auto;html=1;dashed=1;dashPattern=1 4;strokeWidth=2;fontSize=14;exitX=0.5;exitY=0;exitDx=0;exitDy=0;startArrow=none;" edge="1" parent="1" source="J_ALawjSr7KDWthtxZh8-50">
          <mxGeometry relative="1" as="geometry">
            <mxPoint x="248" y="913" as="sourcePoint" />
            <mxPoint x="558" y="1131" as="targetPoint" />
          </mxGeometry>
        </mxCell>
        <mxCell id="J_ALawjSr7KDWthtxZh8-54" value="&lt;font style=&quot;font-size: 10px;&quot;&gt;WorkflowMariadbLoader&lt;/font&gt;" style="rounded=0;whiteSpace=wrap;html=1;" vertex="1" parent="1">
          <mxGeometry x="741" y="1082" width="150" height="60" as="geometry" />
        </mxCell>
        <mxCell id="J_ALawjSr7KDWthtxZh8-56" value="" style="rounded=0;orthogonalLoop=1;jettySize=auto;html=1;dashed=1;dashPattern=1 4;strokeWidth=2;fontSize=14;entryX=0.997;entryY=0.35;entryDx=0;entryDy=0;entryPerimeter=0;" edge="1" parent="1" source="J_ALawjSr7KDWthtxZh8-54" target="J_ALawjSr7KDWthtxZh8-50">
          <mxGeometry relative="1" as="geometry">
            <mxPoint x="288" y="1071" as="sourcePoint" />
            <mxPoint x="288" y="1010.3600000000001" as="targetPoint" />
          </mxGeometry>
        </mxCell>
        <mxCell id="J_ALawjSr7KDWthtxZh8-60" value="&lt;p style=&quot;line-height: 110%; font-size: 10px;&quot;&gt;&lt;span style=&quot;text-align: center;&quot;&gt;GROUP_STATUS_&lt;/span&gt;&lt;span style=&quot;text-align: center;&quot;&gt;UPDATE_INFO&lt;/span&gt;&lt;br&gt;&lt;/p&gt;" style="shape=internalStorage;whiteSpace=wrap;html=1;backgroundOutline=1;align=right;fontSize=10;" vertex="1" parent="1">
          <mxGeometry x="726" y="540" width="180" height="60" as="geometry" />
        </mxCell>
        <mxCell id="J_ALawjSr7KDWthtxZh8-63" value="WorkflowDbChecker&lt;br&gt;(GROUP_GROUP)&lt;br&gt;(30M, 2H, 1D)" style="rounded=0;whiteSpace=wrap;html=1;fontSize=10;" vertex="1" parent="1">
          <mxGeometry x="741" y="661" width="150" height="60" as="geometry" />
        </mxCell>
        <mxCell id="J_ALawjSr7KDWthtxZh8-64" value="" style="edgeStyle=orthogonalEdgeStyle;rounded=0;orthogonalLoop=1;jettySize=auto;html=1;dashed=1;dashPattern=1 4;strokeWidth=2;fontSize=14;entryX=0.5;entryY=1;entryDx=0;entryDy=0;exitX=0.5;exitY=0;exitDx=0;exitDy=0;" edge="1" parent="1" source="J_ALawjSr7KDWthtxZh8-63" target="J_ALawjSr7KDWthtxZh8-60">
          <mxGeometry relative="1" as="geometry">
            <mxPoint x="734" y="655" as="sourcePoint" />
            <mxPoint x="734" y="594" as="targetPoint" />
          </mxGeometry>
        </mxCell>
        <mxCell id="J_ALawjSr7KDWthtxZh8-70" value="" style="edgeStyle=orthogonalEdgeStyle;rounded=0;orthogonalLoop=1;jettySize=auto;html=1;strokeWidth=1;fontSize=12;" edge="1" parent="1" source="J_ALawjSr7KDWthtxZh8-65" target="J_ALawjSr7KDWthtxZh8-68">
          <mxGeometry relative="1" as="geometry" />
        </mxCell>
        <mxCell id="J_ALawjSr7KDWthtxZh8-94" style="rounded=0;orthogonalLoop=1;jettySize=auto;html=1;entryX=1;entryY=0.5;entryDx=0;entryDy=0;strokeWidth=2;fontSize=16;dashed=1;" edge="1" parent="1" source="J_ALawjSr7KDWthtxZh8-65" target="J_ALawjSr7KDWthtxZh8-92">
          <mxGeometry relative="1" as="geometry" />
        </mxCell>
        <mxCell id="J_ALawjSr7KDWthtxZh8-65" value="WorkflowDbSelectorOthers&lt;br&gt;(GROUP_GROUP)&lt;br&gt;(30M, 2H, 1D)" style="rounded=0;whiteSpace=wrap;html=1;fontSize=10;" vertex="1" parent="1">
          <mxGeometry x="741" y="815" width="150" height="60" as="geometry" />
        </mxCell>
        <mxCell id="J_ALawjSr7KDWthtxZh8-66" value="" style="rounded=0;orthogonalLoop=1;jettySize=auto;html=1;strokeWidth=1;fontSize=12;entryX=1;entryY=0.5;entryDx=0;entryDy=0;exitX=1;exitY=0.5;exitDx=0;exitDy=0;edgeStyle=orthogonalEdgeStyle;" edge="1" parent="1" source="J_ALawjSr7KDWthtxZh8-54" target="J_ALawjSr7KDWthtxZh8-60">
          <mxGeometry relative="1" as="geometry">
            <mxPoint x="335" y="847" as="sourcePoint" />
            <mxPoint x="335" y="1201" as="targetPoint" />
            <Array as="points">
              <mxPoint x="950" y="1112" />
              <mxPoint x="950" y="570" />
            </Array>
          </mxGeometry>
        </mxCell>
        <mxCell id="J_ALawjSr7KDWthtxZh8-67" value="" style="edgeStyle=orthogonalEdgeStyle;rounded=0;orthogonalLoop=1;jettySize=auto;html=1;strokeWidth=1;fontSize=12;exitX=0.5;exitY=1;exitDx=0;exitDy=0;entryX=0.5;entryY=0;entryDx=0;entryDy=0;" edge="1" parent="1" source="J_ALawjSr7KDWthtxZh8-63" target="J_ALawjSr7KDWthtxZh8-65">
          <mxGeometry relative="1" as="geometry">
            <mxPoint x="734" y="715" as="sourcePoint" />
            <mxPoint x="734" y="741" as="targetPoint" />
          </mxGeometry>
        </mxCell>
        <mxCell id="J_ALawjSr7KDWthtxZh8-100" style="edgeStyle=none;rounded=0;orthogonalLoop=1;jettySize=auto;html=1;entryX=1;entryY=0.5;entryDx=0;entryDy=0;strokeWidth=1;fontSize=16;" edge="1" parent="1" source="J_ALawjSr7KDWthtxZh8-68" target="J_ALawjSr7KDWthtxZh8-52">
          <mxGeometry relative="1" as="geometry" />
        </mxCell>
        <mxCell id="J_ALawjSr7KDWthtxZh8-68" value="WorkflowSummaryOthers&lt;br&gt;(GROUP_GROUP)&lt;br&gt;(30M, 2H, 1D)" style="rounded=0;whiteSpace=wrap;html=1;fontSize=10;" vertex="1" parent="1">
          <mxGeometry x="741" y="947" width="150" height="60" as="geometry" />
        </mxCell>
        <mxCell id="J_ALawjSr7KDWthtxZh8-74" value="" style="endArrow=classic;html=1;rounded=0;strokeWidth=1;fontSize=12;entryX=0.75;entryY=0;entryDx=0;entryDy=0;exitX=0.5;exitY=1;exitDx=0;exitDy=0;edgeStyle=orthogonalEdgeStyle;" edge="1" parent="1" source="J_ALawjSr7KDWthtxZh8-68" target="J_ALawjSr7KDWthtxZh8-50">
          <mxGeometry width="50" height="50" relative="1" as="geometry">
            <mxPoint x="360" y="1021" as="sourcePoint" />
            <mxPoint x="410" y="971" as="targetPoint" />
            <Array as="points">
              <mxPoint x="839" y="1037" />
              <mxPoint x="540" y="1037" />
            </Array>
          </mxGeometry>
        </mxCell>
        <mxCell id="J_ALawjSr7KDWthtxZh8-50" value="결과 파일" style="shape=document;whiteSpace=wrap;html=1;boundedLbl=1;strokeColor=default;fontSize=12;" vertex="1" parent="1">
          <mxGeometry x="512" y="1082" width="120" height="80" as="geometry" />
        </mxCell>
        <mxCell id="J_ALawjSr7KDWthtxZh8-79" value="&lt;span style=&quot;text-align: right;&quot;&gt;PER_IFC_USAGE&lt;/span&gt;" style="shape=cylinder3;whiteSpace=wrap;html=1;boundedLbl=1;backgroundOutline=1;size=15;fontSize=10;" vertex="1" parent="1">
          <mxGeometry x="129" y="804" width="88" height="60" as="geometry" />
        </mxCell>
        <mxCell id="J_ALawjSr7KDWthtxZh8-80" value="&lt;span style=&quot;text-align: right;&quot;&gt;PER_IFC_PPS&lt;/span&gt;" style="shape=cylinder3;whiteSpace=wrap;html=1;boundedLbl=1;backgroundOutline=1;size=15;fontSize=10;" vertex="1" parent="1">
          <mxGeometry x="129" y="764" width="88" height="60" as="geometry" />
        </mxCell>
        <mxCell id="J_ALawjSr7KDWthtxZh8-81" value="&lt;span style=&quot;text-align: right;&quot;&gt;GROUP_PER_IFC&lt;br&gt;_USAGE_30M&lt;/span&gt;" style="shape=cylinder3;whiteSpace=wrap;html=1;boundedLbl=1;backgroundOutline=1;size=15;fontSize=10;" vertex="1" parent="1">
          <mxGeometry x="592" y="717" width="88" height="60" as="geometry" />
        </mxCell>
        <mxCell id="J_ALawjSr7KDWthtxZh8-82" value="&lt;span style=&quot;text-align: right;&quot;&gt;GROUP_PER_IFC&lt;br&gt;_USAGE_30M&lt;/span&gt;" style="shape=cylinder3;whiteSpace=wrap;html=1;boundedLbl=1;backgroundOutline=1;size=15;fontSize=10;" vertex="1" parent="1">
          <mxGeometry x="592" y="677" width="88" height="60" as="geometry" />
        </mxCell>
        <mxCell id="J_ALawjSr7KDWthtxZh8-84" value="&lt;span style=&quot;text-align: right;&quot;&gt;GROUP_PER_IFC&lt;br&gt;_USAGE_2H&lt;/span&gt;" style="shape=cylinder3;whiteSpace=wrap;html=1;boundedLbl=1;backgroundOutline=1;size=15;fontSize=10;" vertex="1" parent="1">
          <mxGeometry x="592" y="601" width="88" height="60" as="geometry" />
        </mxCell>
        <mxCell id="J_ALawjSr7KDWthtxZh8-85" value="&lt;span style=&quot;text-align: right;&quot;&gt;GROUP_PER_IFC&lt;br&gt;_USAGE_2H&lt;/span&gt;" style="shape=cylinder3;whiteSpace=wrap;html=1;boundedLbl=1;backgroundOutline=1;size=15;fontSize=10;" vertex="1" parent="1">
          <mxGeometry x="592" y="561" width="88" height="60" as="geometry" />
        </mxCell>
        <mxCell id="J_ALawjSr7KDWthtxZh8-86" value="&lt;span style=&quot;text-align: right;&quot;&gt;GROUP_PER_IFC&lt;br&gt;_USAGE_1D&lt;/span&gt;" style="shape=cylinder3;whiteSpace=wrap;html=1;boundedLbl=1;backgroundOutline=1;size=15;fontSize=10;" vertex="1" parent="1">
          <mxGeometry x="491" y="601" width="88" height="60" as="geometry" />
        </mxCell>
        <mxCell id="J_ALawjSr7KDWthtxZh8-87" value="&lt;span style=&quot;text-align: right;&quot;&gt;GROUP_PER_IFC&lt;br&gt;_USAGE_1D&lt;/span&gt;" style="shape=cylinder3;whiteSpace=wrap;html=1;boundedLbl=1;backgroundOutline=1;size=15;fontSize=10;" vertex="1" parent="1">
          <mxGeometry x="491" y="561" width="88" height="60" as="geometry" />
        </mxCell>
        <mxCell id="J_ALawjSr7KDWthtxZh8-93" value="c2 서버&lt;br style=&quot;font-size: 16px;&quot;&gt;30000_workflow.conf&lt;br style=&quot;font-size: 16px;&quot;&gt;group통계" style="rounded=1;whiteSpace=wrap;html=1;fontSize=16;fontStyle=1" vertex="1" parent="1">
          <mxGeometry y="361" width="190" height="90" as="geometry" />
        </mxCell>
      </root>
    </mxGraphModel>
  </diagram>
</mxfile>
